# This file uses centimeters as units for non-parametric coordinates.

mtllib boton.mtl
g default
v -10.245804 10.796869 2.073059
v -10.046339 11.037602 2.073059
v -9.695557 11.003211 2.073059
v -7.783451 9.827060 2.073059
v -7.776573 9.421253 2.073059
v -9.688679 8.279492 2.073059
v -10.073852 8.272614 2.073059
v -10.218291 8.437687 2.073059
v -10.245804 10.796869 2.535172
v -10.046339 11.037602 2.535172
v -9.695557 11.003211 2.535172
v -7.783451 9.827060 2.535172
v -7.776573 9.421253 2.535172
v -9.688679 8.279492 2.535172
v -10.073852 8.272614 2.535172
v -10.218291 8.437687 2.535172
vt 0.659950 0.000000
vt 0.772447 0.000000
vt 0.843452 0.105091
vt 0.956548 0.904928
vt 0.845685 1.000000
vt 0.090335 0.732318
vt 0.000000 0.627172
vt 0.012578 0.549252
vt 0.659950 0.000000
vt 0.772447 0.000000
vt 0.772447 0.000000
vt 0.843452 0.105091
vt 0.843452 0.105091
vt 0.956548 0.904928
vt 0.956548 0.904928
vt 0.845685 1.000000
vt 0.845685 1.000000
vt 0.090335 0.732318
vt 0.090335 0.732318
vt 0.000000 0.627172
vt 0.000000 0.627172
vt 0.012578 0.549252
vt 0.012578 0.549252
vt 0.659950 0.000000
vn 0.000000 0.000000 -1.000000
vn 0.000000 0.000000 -1.000000
vn 0.000000 0.000000 -1.000000
vn 0.000000 0.000000 -1.000000
vn 0.000000 0.000000 -1.000000
vn 0.000000 0.000000 -1.000000
vn 0.000000 0.000000 -1.000000
vn 0.000000 0.000000 -1.000000
vn -0.770021 0.638018 0.000000
vn -0.770021 0.638018 0.000000
vn -0.770021 0.638018 0.000000
vn -0.770021 0.638018 0.000000
vn 0.097573 0.995228 0.000000
vn 0.097573 0.995228 0.000000
vn 0.097573 0.995228 0.000000
vn 0.097573 0.995228 0.000000
vn 0.523926 0.851764 0.000000
vn 0.523926 0.851764 0.000000
vn 0.523926 0.851764 0.000000
vn 0.523926 0.851764 0.000000
vn 0.999856 0.016945 0.000000
vn 0.999856 0.016945 0.000000
vn 0.999856 0.016945 0.000000
vn 0.999856 0.016945 0.000000
vn 0.512678 -0.858581 0.000000
vn 0.512678 -0.858581 0.000000
vn 0.512678 -0.858581 0.000000
vn 0.512678 -0.858581 0.000000
vn 0.017853 -0.999841 0.000000
vn 0.017853 -0.999841 0.000000
vn 0.017853 -0.999841 0.000000
vn 0.017853 -0.999841 0.000000
vn -0.752574 -0.658507 0.000000
vn -0.752574 -0.658507 0.000000
vn -0.752574 -0.658507 0.000000
vn -0.752574 -0.658507 0.000000
vn -0.999932 -0.011661 0.000000
vn -0.999932 -0.011661 0.000000
vn -0.999932 -0.011661 0.000000
vn -0.999932 -0.011661 0.000000
vn -0.000000 0.000000 1.000000
vn -0.000000 0.000000 1.000000
vn -0.000000 0.000000 1.000000
vn -0.000000 0.000000 1.000000
vn -0.000000 0.000000 1.000000
vn -0.000000 0.000000 1.000000
vn -0.000000 0.000000 1.000000
vn -0.000000 0.000000 1.000000
s off
g pasted__polySurface1 play
usemtl aiStandardSurface1SG
f 1/1/1 2/2/2 3/3/3 4/4/4 5/5/5 6/6/6 7/7/7 8/8/8
f 2/2/9 1/10/10 9/1/11 10/9/12
f 3/3/13 2/12/14 10/2/15 11/11/16
f 4/4/17 3/14/18 11/3/19 12/13/20
f 5/4/21 4/15/22 12/5/23 13/16/24
f 6/5/25 5/17/26 13/6/27 14/18/28
f 7/6/29 6/19/30 14/7/31 15/20/32
f 8/8/33 7/22/34 15/7/35 16/21/36
f 1/1/37 8/24/38 16/8/39 9/23/40
f 10/9/41 9/23/42 16/21/43 15/20/44 14/18/45 13/16/46 12/13/47 11/11/48
